<svg width="32" height="32" xmlns="http://www.w3.org/2000/svg"><path d="M30.536 15.355A14.96 14.96 0 0 0 17.5 4.082V1h-3v3.082A14.96 14.96 0 0 0 1.463 15.355c-.14.558.053 1.149.497 1.517.444.367 1.057.45 1.582.212 3.531-1.609 7.653-1.354 10.953.551v9.615a3.754 3.754 0 0 0 3.75 3.75 3.754 3.754 0 0 0 3.75-3.75v-.75h-3v.75a.75.75 0 0 1-1.5 0v-9.608c3.302-1.91 7.431-2.17 10.965-.558a1.497 1.497 0 0 0 2.076-1.73ZM16 15.01A14.93 14.93 0 0 0 8.5 13c-1.035 0-2.058.107-3.06.318A11.968 11.968 0 0 1 16 7c4.498 0 8.51 2.492 10.56 6.318A15.075 15.075 0 0 0 16 15.01Z"/></svg>